<?xml version="1.0" encoding="utf-8"?>
<!-- Generator: Adobe Illustrator 25.4.1, SVG Export Plug-In . SVG Version: 6.00 Build 0)  -->
<svg version="1.1"
	 id="Layer_1" image-rendering="optimizeQuality" text-rendering="geometricPrecision" shape-rendering="geometricPrecision"
	 xmlns="http://www.w3.org/2000/svg" xmlns:xlink="http://www.w3.org/1999/xlink" x="0px" y="0px" viewBox="0 0 512 512"
	 style="enable-background:new 0 0 512 512;" xml:space="preserve">
<style type="text/css">
	.st0{fill-rule:evenodd;clip-rule:evenodd;fill:#524640;}
</style>
<path class="st0" d="M440.6,433.4c-49,50.9-114,77.2-179.5,78.5c-65.5,1.3-131.5-22.4-182.5-71.4S1.3,326.5,0,261
	c-1.3-65.5,22.4-131.5,71.4-182.5c49-51,114-77.2,179.5-78.5c65.5-1.3,131.5,22.4,182.5,71.4c50.9,49,77.2,114,78.5,179.5
	C513.2,316.5,489.5,382.5,440.6,433.4z M310.1,337.9l-31.3-30.1l-47.1,49c-5.3,5.5-14.2,5.7-19.7,0.4l-55.5-53.3
	c-5.5-5.3-5.7-14.1-0.4-19.7l47.1-49L172,205.1c-12-11.6-4.3-31.7,12-32.8l146.9-14.2c11.8-1.3,21.7,8.2,21.2,19.9l-9.7,147.1
	C341.6,341.5,321.7,349,310.1,337.9L310.1,337.9z"/>
</svg>
